<svg width="110" height="111" viewBox="0 0 110 111" fill="none" xmlns="http://www.w3.org/2000/svg">
<circle cx="55" cy="55.5" r="55" fill="#183A6B"/>
<g clip-path="url(#clip0_231_1035)">
<path d="M54.6292 54.5485C58.0704 54.5485 61.0503 53.3143 63.485 50.8792C65.9197 48.4445 67.1539 45.4655 67.1539 42.0239C67.1539 38.5835 65.9197 35.604 63.4846 33.1685C61.0495 30.7342 58.07 29.5 54.6292 29.5C51.1876 29.5 48.2086 30.7342 45.7738 33.1689C43.3391 35.6036 42.1045 38.5831 42.1045 42.0239C42.1045 45.4655 43.3391 48.4449 45.7742 50.8796C48.2094 53.3139 51.1888 54.5485 54.6292 54.5485Z" fill="white"/>
<path d="M76.5443 69.4855C76.4741 68.4723 76.3321 67.367 76.123 66.1998C75.912 65.0239 75.6402 63.9123 75.3149 62.8963C74.9789 61.8461 74.5218 60.8091 73.9569 59.8153C73.3705 58.7838 72.6818 57.8856 71.909 57.1465C71.1008 56.3733 70.1114 55.7516 68.9672 55.2982C67.827 54.8471 66.5634 54.6186 65.2118 54.6186C64.681 54.6186 64.1676 54.8364 63.1762 55.4818C62.566 55.8798 61.8523 56.34 61.0557 56.849C60.3745 57.283 59.4517 57.6896 58.3119 58.0578C57.1999 58.4176 56.0708 58.6001 54.9564 58.6001C53.8419 58.6001 52.7133 58.4176 51.6 58.0578C50.4614 57.69 49.5386 57.2834 48.8582 56.8494C48.0692 56.3451 47.355 55.8849 46.7357 55.4814C45.7455 54.836 45.2318 54.6182 44.7009 54.6182C43.3489 54.6182 42.0857 54.8471 40.9459 55.2986C39.8025 55.7512 38.8127 56.3729 38.0038 57.1469C37.2313 57.8864 36.5422 58.7842 35.9566 59.8153C35.3921 60.8091 34.9351 61.8457 34.5986 62.8967C34.2737 63.9127 34.002 65.0239 33.7909 66.1998C33.5818 67.3654 33.4398 68.4711 33.3696 69.4867C33.3005 70.4817 33.2656 71.5144 33.2656 72.5574C33.2656 75.2718 34.1285 77.4692 35.8301 79.0899C37.5106 80.6891 39.7343 81.5004 42.4384 81.5004H67.4767C70.1808 81.5004 72.4037 80.6895 74.0846 79.0899C75.7866 77.4704 76.6495 75.2726 76.6495 72.557C76.6491 71.5092 76.6138 70.4757 76.5443 69.4855Z" fill="white"/>
</g>
<defs>
<clipPath id="clip0_231_1035">
<rect width="52" height="52" fill="white" transform="translate(29 29.5)"/>
</clipPath>
</defs>
</svg>
