<svg width="31" height="32" viewBox="0 0 31 32" fill="none" xmlns="http://www.w3.org/2000/svg">
<path d="M21.7242 13.8058C21.6806 13.736 21.6199 13.6785 21.5479 13.6386C21.4758 13.5988 21.3948 13.578 21.3125 13.5782H15.9844V6.31253C15.9837 6.20407 15.9467 6.09896 15.8792 6.01404C15.8117 5.92913 15.7177 5.86932 15.6122 5.8442C15.5067 5.81907 15.3958 5.83009 15.2973 5.87549C15.1988 5.92088 15.1184 5.99803 15.0689 6.09456L9.25641 17.7196C9.21925 17.7933 9.20156 17.8753 9.20501 17.9578C9.20847 18.0403 9.23296 18.1205 9.27615 18.1909C9.31934 18.2613 9.37981 18.3194 9.4518 18.3599C9.5238 18.4003 9.60493 18.4217 9.6875 18.4219H15.0156V25.6875C15.016 25.7964 15.053 25.9019 15.1206 25.9871C15.1883 26.0724 15.2827 26.1323 15.3886 26.1574C15.425 26.167 15.4624 26.1718 15.5 26.1719C15.5894 26.1716 15.6771 26.1466 15.7532 26.0996C15.8293 26.0526 15.8908 25.9854 15.9311 25.9055L21.7436 14.2805C21.7811 14.2063 21.799 14.1237 21.7956 14.0406C21.7922 13.9576 21.7676 13.8767 21.7242 13.8058ZM15.9844 23.6338V17.9375C15.9844 17.8091 15.9333 17.6859 15.8425 17.595C15.7517 17.5042 15.6285 17.4532 15.5 17.4532H10.4722L15.0156 8.36628V14.0625C15.0156 14.191 15.0667 14.3142 15.1575 14.405C15.2483 14.4959 15.3715 14.5469 15.5 14.5469H20.5278L15.9844 23.6338Z" fill="white"/>
<path d="M27.3236 7.5622C27.6918 7.09858 27.8769 6.51593 27.8439 5.92483C27.8108 5.33373 27.5619 4.77533 27.1444 4.35563L25.7736 2.98485C25.6814 2.89736 25.5592 2.84858 25.4321 2.84858C25.305 2.84858 25.1828 2.89736 25.0906 2.98485L24.7467 3.32876L23.3759 1.95798L22.6929 2.64095L24.0637 4.01173L23.3759 4.69954L22.0051 3.32876L21.3222 4.01173L22.6929 5.38251L22.349 5.72641C22.2588 5.81717 22.2082 5.93993 22.2082 6.0679C22.2082 6.19586 22.2588 6.31863 22.349 6.40938L23.7198 7.78016C24.0868 8.15014 24.5645 8.39011 25.0804 8.46356C25.5963 8.53701 26.122 8.43991 26.5776 8.18704C28.2015 10.468 29.0704 13.2001 29.0625 16C29.0605 18.2256 28.5113 20.4165 27.4633 22.3799C26.4153 24.3433 24.9007 26.019 23.0527 27.2592C21.2047 28.4995 19.0802 29.2664 16.8661 29.4923C14.652 29.7183 12.4163 29.3964 10.3559 28.555L9.98779 29.4511C12.1953 30.3529 14.5908 30.6981 16.9631 30.4562C19.3355 30.2143 21.612 29.3928 23.5921 28.0639C25.5722 26.7351 27.1951 24.9397 28.318 22.836C29.4409 20.7323 30.0292 18.3847 30.0312 16C30.04 12.9724 29.0924 10.0194 27.3236 7.5622ZM26.4614 7.0972C26.1869 7.36728 25.8172 7.51864 25.4321 7.51864C25.047 7.51864 24.6773 7.36728 24.4028 7.0972L23.3759 6.06548L25.4345 4.01173L26.4614 5.0386C26.7336 5.31201 26.8864 5.6821 26.8864 6.0679C26.8864 6.45369 26.7336 6.82378 26.4614 7.0972Z" fill="white"/>
<path d="M15.5001 1.46877C11.6476 1.47351 7.95426 3.006 5.23015 5.73011C2.50604 8.45422 0.973553 12.1475 0.968811 16C0.960005 19.0276 1.90762 21.9807 3.67647 24.4378C3.30829 24.9014 3.12315 25.4841 3.15619 26.0752C3.18922 26.6663 3.43814 27.2247 3.85569 27.6444L5.22647 29.0152C5.27062 29.0602 5.3234 29.0959 5.38167 29.12C5.43993 29.1441 5.50247 29.1563 5.56553 29.1556C5.62931 29.1563 5.69259 29.1442 5.75164 29.1201C5.81069 29.0959 5.86434 29.0603 5.90944 29.0152L6.25334 28.6713L7.62412 30.042L8.30709 29.3591L6.93631 27.9883L7.62412 27.3005L8.9949 28.6713L9.67787 27.9883L8.30709 26.6175L8.651 26.2736C8.74121 26.1829 8.79185 26.0601 8.79185 25.9321C8.79185 25.8042 8.74121 25.6814 8.651 25.5906L7.28022 24.2199C6.91114 23.8534 6.43366 23.6159 5.91877 23.5426C5.40388 23.4693 4.87908 23.5641 4.4224 23.813C2.79859 21.532 1.92966 18.7999 1.93756 16C1.94154 12.4042 3.37171 8.95687 5.91431 6.41427C8.45692 3.87167 11.9043 2.44149 15.5001 2.43752C17.2646 2.43383 19.0126 2.77783 20.6441 3.44986L21.0122 2.54892C19.2628 1.83296 17.3903 1.46602 15.5001 1.46877ZM4.53865 24.9028C4.81317 24.6327 5.18285 24.4814 5.56795 24.4814C5.95305 24.4814 6.32273 24.6327 6.59725 24.9028L7.62412 25.9345L5.56553 27.9883L4.53865 26.9614C4.26647 26.688 4.11366 26.3179 4.11366 25.9321C4.11366 25.5463 4.26647 25.1762 4.53865 24.9028Z" fill="white"/>
</svg>
