<svg width="34" height="35" viewBox="0 0 34 35" fill="none" xmlns="http://www.w3.org/2000/svg">
<path d="M30.9673 11.5739C30.52 12.0239 28.0932 11.4756 25.5427 8.90865C22.6601 6.00749 19.64 5.20849 18.6094 6.24336L18.6088 6.2439L16.4047 8.46186C16.4041 8.4624 16.4031 8.46293 16.402 8.46399C15.5063 9.36605 15.9281 12.289 19.0503 15.4313C20.2254 16.6139 20.7333 17.3847 20.9771 17.9877C20.2647 17.5765 19.4195 16.9597 18.4803 16.0146C15.7507 13.267 12.6354 12.2555 11.5474 13.3494L9.34064 15.5705C9.34011 15.5711 9.34011 15.5716 9.33957 15.5721C8.44495 16.4752 8.86729 19.3971 11.9889 22.5379C12.8926 23.4479 13.5572 24.1757 13.7914 25.0215C13.1051 24.6108 12.3039 24.0131 11.4178 23.1212C8.81842 20.5048 5.61923 19.3148 4.48554 20.4559L2.27926 22.6771C1.78307 23.1764 2.53904 23.9244 3.03311 23.4256C3.48042 22.9756 5.90717 23.5233 8.4577 26.0903C11.1442 28.7939 14.286 29.8675 15.3905 28.7561L17.5957 26.5361L17.5968 26.535C18.493 25.6329 18.0717 22.7095 14.949 19.5682C13.6299 18.2401 13.2108 17.5728 13.1178 17.0671C13.81 17.4777 14.6207 18.0796 15.5191 18.9833C18.1992 21.681 21.3416 22.7621 22.4498 21.6501C22.4503 21.6496 22.4508 21.6496 22.4514 21.6491L24.6582 19.4279C24.6587 19.4274 24.6587 19.4269 24.6592 19.4263C25.5539 18.5227 25.131 15.6008 22.0099 12.4606C20.7843 11.227 20.3524 10.6347 20.2445 9.9993C20.9224 10.4094 21.7108 11.0023 22.5805 11.8778C25.4625 14.7779 28.4826 15.5774 29.5127 14.5431L29.5133 14.5426L31.7195 12.3219C32.2163 11.8241 31.4629 11.0756 30.9673 11.5739ZM9.21154 25.3418C7.51579 23.6354 5.67448 22.5341 4.1567 22.2956L5.23939 21.2055C5.58842 20.8543 7.88395 21.0716 10.6645 23.8708C12.0298 25.2446 13.2395 25.9984 14.1607 26.4171C14.1649 26.4192 14.1692 26.4208 14.1734 26.4224C14.4348 26.5403 14.676 26.6359 14.8864 26.7055C15.1791 26.8033 15.459 26.8697 15.7252 26.9122L14.6372 28.0071C14.3046 28.3407 12.0282 28.1771 9.21154 25.3418ZM14.1963 20.3178C17.022 23.1605 17.1803 25.4486 16.844 25.7865C16.5332 26.0999 15.365 25.7594 14.9358 25.592C14.8975 24.096 13.9992 23.0532 12.7433 21.7888C9.9181 18.9466 9.75926 16.6591 10.0945 16.3196H10.095L10.0955 16.3191C10.4084 16.0088 11.5326 16.3244 12.0521 16.5316C11.9422 17.525 12.2742 18.3835 14.1963 20.3178ZM16.2734 18.2353C14.9464 16.9002 13.0652 15.4887 11.2154 15.1923L12.3018 14.099C12.6493 13.7473 14.9501 13.9688 17.7269 16.7637C19.0545 18.0998 20.9325 19.5103 22.7871 19.8062L21.6991 20.9011C21.3235 21.273 19.0004 20.9802 16.2734 18.2353ZM21.2571 13.2107C24.0818 16.0524 24.2411 18.3405 23.9059 18.6799L23.9049 18.6805C23.627 18.9578 22.6059 18.7001 22.2325 18.5726C22.0577 17.5595 21.6534 16.5427 19.8047 14.6823C16.98 11.8401 16.8206 9.55252 17.1559 9.21358C17.1564 9.21305 17.1564 9.21305 17.1569 9.21305L17.1574 9.21252C17.481 8.89536 18.6258 9.2274 19.1587 9.44468C19.1061 10.7361 19.5598 11.5027 21.2571 13.2107ZM28.7615 13.7935L28.761 13.794C28.412 14.1452 26.1164 13.9274 23.3359 11.1293C22.0354 9.82027 20.8741 9.0728 19.9709 8.64302C19.7994 8.57555 19.1316 8.2228 18.2773 8.08574L19.3627 6.99296L19.3632 6.99243C19.7106 6.64074 22.0115 6.86227 24.7889 9.65718C26.4846 11.3641 28.3259 12.4654 29.8437 12.7044L28.7615 13.7935Z" fill="white"/>
</svg>
