<svg width="24" height="31" viewBox="0 0 24 31" fill="none" xmlns="http://www.w3.org/2000/svg">
<path d="M8.87533 2.25781V6.45508M8.87533 5.33398V9.40631L1.23119 26.47C0.508498 28.0832 1.58158 29.6211 3.04531 29.6211H10.6331M9.51205 29.6211H14.391M13.2699 29.6211H20.8577C22.3214 29.6211 23.3945 28.0832 22.6718 26.47L15.0277 9.40631V2.25781" stroke="white" stroke-width="0.9961" stroke-miterlimit="22.9256"/>
<path fill-rule="evenodd" clip-rule="evenodd" d="M8.87549 0.5H15.0278C15.5112 0.5 15.9067 0.895508 15.9067 1.37891C15.9067 1.8623 15.5111 2.25781 15.0278 2.25781H8.87549C8.39221 2.25781 7.99658 1.8623 7.99658 1.37891C7.99658 0.895508 8.39209 0.5 8.87549 0.5Z" stroke="white" stroke-width="0.9961" stroke-miterlimit="22.9256"/>
<path d="M6.99951 24.5202V21.2121H7.14488L9.19139 24.4692H9.33676V21.2059" stroke="white" stroke-width="0.9961" stroke-miterlimit="10" stroke-linecap="square"/>
<path d="M11.0942 21.2059V24.4691M13.3877 21.2059V24.4691" stroke="white" stroke-width="0.9961" stroke-miterlimit="10" stroke-linecap="square"/>
<path d="M11.3462 22.7552H13.2624" stroke="white" stroke-width="0.9961" stroke-miterlimit="10" stroke-linecap="square"/>
<path d="M15.1836 25.7305C15.2932 26.0909 15.6283 26.3533 16.0246 26.3533C16.51 26.3533 16.9035 25.9598 16.9035 25.4744C16.9035 24.989 16.51 24.5955 16.0246 24.5955" stroke="white" stroke-width="0.9961" stroke-miterlimit="22.9256"/>
<path d="M15.1841 23.458C15.2945 23.0988 15.6289 22.8376 16.0243 22.8376C16.5097 22.8376 16.9032 23.2312 16.9032 23.7166C16.9032 24.2019 16.5097 24.5955 16.0243 24.5955H15.5849" stroke="white" stroke-width="0.9961" stroke-miterlimit="22.9256"/>
<path d="M5.33154 17.3164H18.5709" stroke="white" stroke-width="0.9961" stroke-miterlimit="22.9256"/>
<path d="M8.72607 9.40637H10.9233" stroke="white" stroke-width="0.9961" stroke-miterlimit="22.9256"/>
<path d="M7.68018 12.0431H9.87744" stroke="white" stroke-width="0.9961" stroke-miterlimit="22.9256"/>
<path d="M6.52246 14.6797H8.71973" stroke="white" stroke-width="0.9961" stroke-miterlimit="22.9256"/>
<path d="M13.27 4.45508V3.57617M13.27 6.21289V5.33398" stroke="white" stroke-width="0.9961" stroke-miterlimit="22.9256"/>
</svg>
