<svg width="27" height="28" viewBox="0 0 27 28" fill="none" xmlns="http://www.w3.org/2000/svg">
<g clip-path="url(#clip0_119_424)">
<path d="M24.5852 4.0398L22.3352 1.78978C22.1155 1.57003 21.7595 1.57003 21.5398 1.78978C21.3201 2.00952 21.3201 2.36548 21.5398 2.58517L23.3921 4.43747L21.5398 6.28976C21.4343 6.39523 21.375 6.53803 21.375 6.68748V8.37498C21.375 9.61593 22.3841 10.625 23.625 10.625V20.1875C23.625 20.4978 23.3729 20.75 23.0625 20.75C22.7522 20.75 22.5 20.4979 22.5 20.1875V19.0625C22.5 18.132 21.743 17.375 20.8125 17.375H20.25V2.75002C20.25 1.50907 19.241 0.5 18 0.5H6.75003C5.50914 0.5 4.50002 1.50907 4.50002 2.75002V23C3.25912 23 2.25 24.0091 2.25 25.25V26.9375C2.25 27.2485 2.5016 27.5001 2.81252 27.5001H21.9375C22.2485 27.5001 22.5 27.2485 22.5 26.9375V25.25C22.5 24.0091 21.491 23 20.25 23V18.5H20.8125C21.1229 18.5 21.3751 18.7522 21.3751 19.0626V20.1875C21.3751 21.1181 22.132 21.875 23.0626 21.875C23.9931 21.875 24.7501 21.1181 24.7501 20.1875V4.43752C24.75 4.28807 24.6907 4.14526 24.5852 4.0398ZM5.62505 2.75002C5.62505 2.12986 6.12988 1.62504 6.75003 1.62504H18C18.6202 1.62504 19.125 2.12986 19.125 2.75002V23H5.625L5.62505 2.75002ZM21.375 25.25V26.375H3.37504V25.25C3.37504 24.6298 3.87986 24.125 4.50002 24.125H20.25C20.8702 24.125 21.375 24.6298 21.375 25.25ZM23.625 9.50002C23.0049 9.50002 22.5 8.99519 22.5 8.37504V6.92041L23.625 5.79543V9.50002Z" fill="white"/>
<path d="M17.4375 2.75H7.31252C7.0016 2.75 6.75 3.0016 6.75 3.31252V10.073C6.75 10.3839 7.0016 10.6355 7.31252 10.6355H17.4375C17.7484 10.6355 18 10.3839 18 10.073V3.31246C18 3.0016 17.7484 2.75 17.4375 2.75ZM16.875 9.51044H7.87498V3.87498H16.875V9.51044Z" fill="white"/>
</g>
<defs>
<clipPath id="clip0_119_424">
<rect width="27" height="27" fill="white" transform="translate(0 0.5)"/>
</clipPath>
</defs>
</svg>
