<svg width="23" height="23" viewBox="0 0 23 23" fill="none" xmlns="http://www.w3.org/2000/svg">
<path d="M22.849 8.37712C22.8489 8.02937 22.7458 7.68943 22.5526 7.40029C22.3594 7.11114 22.0848 6.88574 21.7636 6.75264C21.4423 6.61954 21.0888 6.58468 20.7477 6.65247C20.4066 6.72026 20.0933 6.88766 19.8474 7.1335L17.4499 9.53101L8.84057 0.921554C8.24892 0.331368 7.44733 -5.91034e-05 6.61165 7.90567e-09C5.77596 5.91193e-05 4.97441 0.331573 4.38284 0.921843L0.921506 4.38323C0.33139 4.97483 0 5.77631 0 6.61191C0 7.44752 0.33139 8.24904 0.921506 8.84064L9.53094 17.4499L7.13362 19.8474C6.8843 20.0913 6.71447 20.4048 6.64634 20.7468C6.5782 21.0889 6.61496 21.4435 6.7518 21.7643C6.8413 21.9816 6.97257 22.1792 7.13819 22.3459C7.30099 22.5076 7.49425 22.6354 7.70677 22.7219C7.91928 22.8084 8.14685 22.8519 8.37628 22.8498L22.8494 22.8493L22.849 8.37712Z" fill="url(#paint0_linear_119_735)"/>
<defs>
<linearGradient id="paint0_linear_119_735" x1="4.83875" y1="5.10692" x2="21.5131" y2="21.3306" gradientUnits="userSpaceOnUse">
<stop stop-color="#35AAF9"/>
<stop offset="1" stop-color="#04223F"/>
</linearGradient>
</defs>
</svg>
