<svg width="23" height="23" viewBox="0 0 23 23" fill="none" xmlns="http://www.w3.org/2000/svg">
<path d="M8.37712 0.000433016C8.02937 0.000453432 7.68943 0.103612 7.40029 0.296808C7.11114 0.490005 6.88574 0.764591 6.75264 1.08586C6.61954 1.40713 6.58468 1.76064 6.65247 2.10171C6.72026 2.44279 6.88766 2.7561 7.1335 3.00205L9.53101 5.39956L0.921554 14.009C0.33137 14.6006 -5.91039e-05 15.4022 7.90576e-09 16.2379C5.91197e-05 17.0735 0.331575 17.875 0.921843 18.4666L4.38323 21.9279C4.9748 22.518 5.77623 22.8494 6.61181 22.8494C7.4474 22.8494 8.24888 22.518 8.84045 21.9279L17.4499 13.3185L19.8472 15.7158C20.0912 15.9651 20.4047 16.1349 20.7467 16.2031C21.0888 16.2712 21.4435 16.2345 21.7643 16.0977C21.9816 16.0082 22.1792 15.8769 22.3458 15.7112C22.5075 15.5484 22.6353 15.3552 22.7218 15.1427C22.8083 14.9301 22.8519 14.7026 22.8498 14.4731L22.8493 0L8.37712 0.000433016Z" fill="url(#paint0_linear_119_844)"/>
<defs>
<linearGradient id="paint0_linear_119_844" x1="5.10684" y1="18.0106" x2="21.3306" y2="1.33618" gradientUnits="userSpaceOnUse">
<stop stop-color="#36ABFA"/>
<stop offset="1" stop-color="#052340"/>
</linearGradient>
</defs>
</svg>
