<svg width="34" height="35" viewBox="0 0 34 35" fill="none" xmlns="http://www.w3.org/2000/svg">
<g clip-path="url(#clip0_119_531)">
<path d="M23.5797 9.22534C21.8223 7.46787 19.4856 6.5 17.0002 6.5C14.5148 6.5 12.1781 7.46787 10.4207 9.22534C8.66319 10.9829 7.69531 13.3195 7.69531 15.8049C7.69531 20.8327 12.4493 25.0147 15.0033 27.2613C15.3582 27.5735 15.6647 27.8432 15.9089 28.0713C16.2149 28.357 16.6076 28.5 17.0002 28.5C17.3929 28.5 17.7855 28.357 18.0914 28.0713C18.3356 27.8431 18.6421 27.5735 18.9971 27.2613C21.5511 25.0146 26.3051 20.8327 26.3051 15.8049C26.305 13.3195 25.3372 10.9829 23.5797 9.22534ZM18.1458 26.2938C17.7831 26.6128 17.4699 26.8884 17.2117 27.1296C17.0931 27.2403 16.9073 27.2403 16.7886 27.1296C16.5304 26.8883 16.2171 26.6128 15.8544 26.2937C13.4534 24.1816 8.98395 20.25 8.98395 15.8049C8.98395 11.3848 12.58 7.78876 17.0001 7.78876C21.4202 7.78876 25.0163 11.3848 25.0163 15.8049C25.0163 20.25 20.5469 24.1816 18.1458 26.2938Z" fill="white"/>
<path d="M17 11.3528C14.7389 11.3528 12.8994 13.1922 12.8994 15.4533C12.8994 17.7144 14.7389 19.5538 17 19.5538C19.261 19.5538 21.1005 17.7144 21.1005 15.4533C21.1005 13.1922 19.261 11.3528 17 11.3528ZM17 18.2651C15.4495 18.2651 14.1881 17.0037 14.1881 15.4533C14.1881 13.9029 15.4495 12.6415 17 12.6415C18.5504 12.6415 19.8118 13.9029 19.8118 15.4533C19.8118 17.0037 18.5504 18.2651 17 18.2651Z" fill="white"/>
</g>
<defs>
<clipPath id="clip0_119_531">
<rect width="22" height="22" fill="white" transform="translate(6 6.5)"/>
</clipPath>
</defs>
</svg>
