<svg width="34" height="35" viewBox="0 0 34 35" fill="none" xmlns="http://www.w3.org/2000/svg">
<path d="M26.7105 22.3273C26.6757 22.2984 22.7454 19.4858 21.679 19.6702C21.1665 19.7607 20.8731 20.1098 20.2858 20.8101C20.1913 20.9229 19.9636 21.1927 19.7877 21.3849C19.4165 21.264 19.0544 21.1166 18.7042 20.9439C16.8966 20.0639 15.4361 18.6034 14.5561 16.7958C14.3834 16.4456 14.236 16.0835 14.1151 15.7123C14.308 15.5358 14.5784 15.3081 14.6939 15.2109C15.3902 14.6269 15.7393 14.3335 15.8298 13.8203C16.0156 12.7579 13.2016 8.82431 13.1727 8.78887C13.0445 8.60713 12.8776 8.45611 12.684 8.3467C12.4904 8.2373 12.2749 8.17225 12.0531 8.15625C10.9126 8.15625 7.65625 12.3799 7.65625 13.0919C7.65625 13.1332 7.71597 17.3359 12.8984 22.6075C18.1641 27.784 22.3667 27.8438 22.4081 27.8438C23.1201 27.8438 27.3438 24.5874 27.3438 23.4469C27.3278 23.225 27.2626 23.0094 27.1531 22.8158C27.0436 22.6222 26.8924 22.4553 26.7105 22.3273ZM22.3359 26.5273C21.7623 26.4801 18.2357 26.0148 13.8263 21.6829C9.47209 17.2499 9.01863 13.7134 8.97334 13.1654C9.83354 11.8153 10.8724 10.5877 12.0617 9.516C12.0879 9.54225 12.1227 9.58162 12.1673 9.63281C13.0794 10.8779 13.8651 12.2107 14.5128 13.6117C14.3021 13.8235 14.0795 14.0232 13.846 14.2095C13.4839 14.4854 13.1513 14.7982 12.8538 15.1427L12.6943 15.3658L12.7415 15.6355C12.8804 16.2371 13.0931 16.8193 13.3748 17.3687C14.3841 19.4411 16.0587 21.1156 18.1313 22.1245C18.6806 22.4066 19.2628 22.6196 19.8645 22.7585L20.1342 22.8057L20.3573 22.6462C20.7031 22.3473 21.0172 22.0135 21.2944 21.6501C21.4998 21.4046 21.7748 21.0772 21.8785 20.9846C23.2834 21.6317 24.6197 22.4183 25.8672 23.3327C25.9217 23.3786 25.9597 23.4141 25.9853 23.437C24.9138 24.6267 23.6862 25.6658 22.3359 26.526V26.5273Z" fill="white"/>
</svg>
