<svg width="100" height="41" viewBox="0 0 100 41" fill="none" xmlns="http://www.w3.org/2000/svg">
<g clip-path="url(#clip0_119_720)">
<path d="M16.2514 26.8887H4.50473V19.1316H0V40.4184H4.50473V30.8717H16.2514V40.4184H20.7948V19.1316H16.2514V26.8887Z" fill="white"/>
<path d="M74.1663 19.1316H67.9644L59.9915 26.7843V19.1316H55.4868V40.4184H59.9915V28.1943L71.2534 40.4184H76.9739L64.7739 27.5085L74.1663 19.1316Z" fill="white"/>
<path d="M95.4603 19.1316V29.9839C95.4603 34.0679 93.2747 36.5051 89.3919 36.5051C85.4775 36.5051 83.3622 34.0679 83.3622 29.9456V19.1316H78.8574V29.9456C78.8574 36.4842 82.6699 40.5821 89.16 40.69C95.1405 40.791 99.9966 35.9062 99.9966 29.9804V19.1316H95.4603Z" fill="white"/>
<path d="M47.3629 16.1792C52.0398 16.1792 55.8101 12.2658 55.5114 7.56902C55.2549 3.54422 51.9484 0.267984 47.8864 0.0173049C43.1463 -0.278636 39.1967 3.45718 39.1967 8.09127C39.1967 10.2986 40.1103 12.2832 41.5686 13.7385C42.0254 14.1946 42.173 14.8666 41.9235 15.4585L41.5124 16.4264C40.9537 17.7424 39.643 18.5571 38.2023 18.5537C38.1953 18.5537 38.1848 18.5537 38.1777 18.5537C31.6631 18.5537 26.417 24.0303 26.8773 30.5793C27.2673 36.1082 31.7896 40.5856 37.3696 40.972C43.9791 41.4281 49.5028 36.23 49.5028 29.775C49.5028 26.6972 48.2413 23.905 46.2068 21.8752C45.2124 20.8829 44.8821 19.4136 45.4303 18.1254L45.8519 17.1331C46.1049 16.5378 46.6988 16.1757 47.3523 16.1792C47.3558 16.1792 47.3594 16.1792 47.3629 16.1792ZM38.1777 36.7592C34.1403 36.7592 30.8865 33.382 31.1431 29.3259C31.3539 25.9835 34.0033 23.2156 37.359 22.8396C41.6072 22.3626 45.2194 25.6597 45.2194 29.775C45.223 33.6292 42.064 36.7592 38.1777 36.7592ZM46.8569 4.27189C49.3939 3.95158 51.5373 6.07539 51.214 8.58915C50.9962 10.3021 49.5977 11.6878 47.8689 11.9037C45.3284 12.224 43.1885 10.1002 43.5117 7.58295C43.7296 5.87345 45.1281 4.49124 46.8569 4.27189Z" fill="white"/>
</g>
<defs>
<clipPath id="clip0_119_720">
<rect width="100" height="41" fill="white"/>
</clipPath>
</defs>
</svg>
