<svg width="34" height="35" viewBox="0 0 34 35" fill="none" xmlns="http://www.w3.org/2000/svg">
<g clip-path="url(#clip0_119_574)">
<path d="M6.35107 29.4072H12.3064V13.7468H6.35107V29.4072ZM7.69873 15.0945H10.9588V28.0595H7.69873V15.0945Z" fill="white"/>
<path d="M9.32867 6.59277C7.4932 6.59277 6 8.08602 6 9.92144C6 11.7569 7.4932 13.2502 9.32867 13.2502C11.1641 13.2502 12.6574 11.7569 12.6574 9.92144C12.6574 8.08598 11.1641 6.59277 9.32867 6.59277ZM7.34766 9.92144C7.34766 8.82912 8.2363 7.94043 9.32867 7.94043C10.421 7.94043 11.3097 8.82907 11.3097 9.92144C11.3097 11.0138 10.421 11.9025 9.32867 11.9025C8.2363 11.9025 7.34766 11.0138 7.34766 9.92144Z" fill="white"/>
<path d="M28.9858 18.6644C28.7739 15.6163 26.2313 13.2673 23.0791 13.2673C21.6691 13.2673 20.3381 13.7575 19.2894 14.6273V13.7468H13.583V29.4072H19.5384V20.8422C19.5384 19.8769 20.3237 19.0916 21.289 19.0916C22.2542 19.0916 23.0396 19.8769 23.0396 20.8426L23.0453 29.4072H29.0002V18.6789L28.9858 18.6644ZM18.1907 28.0596H14.9307V15.0945H17.9417V17.0193L19.0201 17.0255L19.2204 16.7145C20.0672 15.3998 21.5097 14.615 23.0791 14.615C25.5873 14.615 27.5957 16.5288 27.6512 18.9718L27.6526 28.0596H24.3921L24.3872 20.8422C24.3872 19.1338 22.9973 17.7439 21.289 17.7439C19.5806 17.7439 18.1907 19.1338 18.1907 20.8422V28.0596Z" fill="white"/>
</g>
<defs>
<clipPath id="clip0_119_574">
<rect width="23" height="23" fill="white" transform="translate(6 6.5)"/>
</clipPath>
</defs>
</svg>
