<svg width="34" height="35" viewBox="0 0 34 35" fill="none" xmlns="http://www.w3.org/2000/svg">
<g clip-path="url(#clip0_119_582)">
<path d="M18.6205 29.4531H14.7696C14.1263 29.4531 13.6031 28.9309 13.6031 28.2889V19.62H11.3564C10.7132 19.62 10.1899 19.0976 10.1899 18.4558V14.7412C10.1899 14.0992 10.7132 13.577 11.3564 13.577H13.6031V11.7168C13.6031 9.87238 14.1834 8.30316 15.2811 7.17908C16.3837 6.04987 17.9246 5.45312 19.7372 5.45312L22.6741 5.45789C23.3162 5.45898 23.8385 5.9812 23.8385 6.62207V10.071C23.8385 10.713 23.3155 11.2352 22.6725 11.2352L20.6951 11.236C20.092 11.236 19.9385 11.3566 19.9056 11.3936C19.8515 11.455 19.7871 11.6284 19.7871 12.1072V13.5768H22.5238C22.7299 13.5768 22.9295 13.6275 23.101 13.7231C23.4711 13.9294 23.7011 14.3196 23.7011 14.7413L23.6997 18.456C23.6997 19.0976 23.1764 19.6198 22.5332 19.6198H19.7871V28.2889C19.7871 28.9309 19.2637 29.4531 18.6205 29.4531ZM15.0128 28.0461H18.3772V18.9901C18.3772 18.5615 18.7267 18.2128 19.156 18.2128H22.2899L22.2912 14.9839H19.1558C18.7265 14.9839 18.3772 14.6353 18.3772 14.2067V12.1072C18.3772 11.5575 18.4332 10.9324 18.8489 10.4625C19.3512 9.89453 20.1429 9.82898 20.6947 9.82898L22.4288 9.82825V6.8645L19.7361 6.86011C16.8231 6.86011 15.0128 8.72119 15.0128 11.7168V14.2067C15.0128 14.6351 14.6635 14.9839 14.2342 14.9839H11.5997V18.2128H14.2342C14.6635 18.2128 15.0128 18.5615 15.0128 18.9901V28.0461Z" fill="white"/>
</g>
<defs>
<clipPath id="clip0_119_582">
<rect width="24" height="24" fill="white" transform="translate(5 5.5)"/>
</clipPath>
</defs>
</svg>
