<svg width="34" height="35" viewBox="0 0 34 35" fill="none" xmlns="http://www.w3.org/2000/svg">
<path d="M21.0831 12.7048H15.6194C15.1379 12.7048 14.7476 13.0951 14.7476 13.5767C14.7476 14.0583 15.1378 14.4486 15.6194 14.4486H21.0831C21.565 14.4486 21.955 14.0583 21.955 13.5767C21.955 13.0951 21.5647 12.7048 21.0831 12.7048Z" fill="white"/>
<path d="M23.1756 16.9187H15.6194C15.1379 16.9187 14.7476 17.309 14.7476 17.7906C14.7476 18.2721 15.1378 18.6625 15.6194 18.6625H23.1756C23.6571 18.6625 24.0475 18.2722 24.0475 17.7906C24.0475 17.309 23.6571 16.9187 23.1756 16.9187Z" fill="white"/>
<path d="M27.1281 7.24097H11.6962C11.2146 7.24097 10.8243 7.63125 10.8243 8.11285V16.3374H9.28402C7.47314 16.3374 6 17.8108 6 19.6214V24.4748C6 26.2857 7.47314 27.7588 9.28402 27.7588C9.43221 27.7588 9.57814 27.7489 9.72084 27.7298H24.1057C26.2528 27.7298 28 25.9828 28 23.8355V8.11285C28 7.63125 27.6097 7.24097 27.1281 7.24097ZM10.8243 24.4748C10.8243 25.222 10.2893 25.8468 9.58222 25.986H9.28406V26.015C8.43457 26.015 7.74376 25.3239 7.74376 24.4747V19.6214C7.74376 18.7722 8.43487 18.0811 9.28406 18.0811H10.8244L10.8243 24.4748ZM26.2563 23.8354C26.2563 25.0011 25.2717 25.986 24.1057 25.986H12.1992C12.4349 25.5335 12.568 25.0194 12.568 24.4748V8.98468H26.2563V23.8354Z" fill="white"/>
<path d="M21.0831 20.8716H15.6194C15.1379 20.8716 14.7476 21.2619 14.7476 21.7435C14.7476 22.225 15.1378 22.6153 15.6194 22.6153H21.0831C21.565 22.6153 21.955 22.2251 21.955 21.7435C21.955 21.2619 21.5647 20.8716 21.0831 20.8716Z" fill="white"/>
</svg>
